<svg width="56" height="55" viewBox="0 0 56 55" fill="none" xmlns="http://www.w3.org/2000/svg">
<g id="majesticons:cake-line">
<g id="Group">
<path id="Vector" d="M16.6979 20.625C14.2668 20.625 11.9352 21.5908 10.2161 23.3099C8.49702 25.0289 7.53125 27.3605 7.53125 29.7917V43.5417C7.53125 44.7572 8.01414 45.923 8.87368 46.7826C9.73322 47.6421 10.899 48.125 12.1146 48.125H44.1979C45.4135 48.125 46.5793 47.6421 47.4388 46.7826C48.2984 45.923 48.7813 44.7572 48.7813 43.5417V29.7917C48.7813 27.3605 47.8155 25.0289 46.0964 23.3099C44.3773 21.5908 42.0457 20.625 39.6146 20.625M16.6979 20.625H39.6146M16.6979 20.625V13.75M39.6146 20.625V13.75M28.1563 13.75V20.625M28.1563 6.875H28.1792M16.6979 6.875H16.7208M39.6146 6.875H39.6375" stroke="black" stroke-width="2.66667" stroke-linecap="round" stroke-linejoin="round"/>
<path id="Vector_2" d="M7.53125 29.7916C7.53125 32.0833 8.90625 36.6666 14.4063 36.6666C19.9063 36.6666 21.2813 32.0833 21.2813 29.7916C21.2813 32.0833 22.6563 36.6666 28.1563 36.6666C33.6563 36.6666 35.0313 32.0833 35.0313 29.7916C35.0313 32.0833 36.4063 36.6666 41.9063 36.6666C47.4063 36.6666 48.7813 32.0833 48.7813 29.7916" stroke="black" stroke-width="2.66667" stroke-linecap="round" stroke-linejoin="round"/>
</g>
</g>
</svg>
