<?xml version="1.0" encoding="UTF-8" standalone="no"?><!DOCTYPE svg PUBLIC "-//W3C//DTD SVG 1.1//EN" "http://www.w3.org/Graphics/SVG/1.1/DTD/svg11.dtd"><svg width="100%" height="100%" viewBox="0 0 2355 534" version="1.1" xmlns="http://www.w3.org/2000/svg" xmlns:xlink="http://www.w3.org/1999/xlink" xml:space="preserve" xmlns:serif="http://www.serif.com/" style="fill-rule:evenodd;clip-rule:evenodd;stroke-linecap:round;stroke-linejoin:round;stroke-miterlimit:10;"><rect id="Cake-Doodle-Component-Background---White" serif:id="Cake Doodle Component Background - White" x="0" y="0" width="2354.07" height="533.333" style="fill:none;"/><g id="Cake-background-1" serif:id="Cake background 1"><g><clipPath id="_clip1"><path d="M220.928,33.333l55.44,220.928l-220.928,55.44l-55.44,-220.928l220.928,-55.44Z"/></clipPath><g clip-path="url(#_clip1)"><path d="M209.837,160.068l-140.22,35.188c-5.489,1.377 -8.825,6.947 -7.448,12.436l15.896,63.344l160.104,-40.177l-15.896,-63.344c-1.377,-5.488 -6.947,-8.824 -12.436,-7.447Z" style="fill:none;fill-rule:nonzero;stroke:#fff;stroke-width:2.78px;"/><path d="M67.376,228.438c1.135,4.523 5.816,7.238 10.476,6.068c4.66,-1.169 7.504,-5.773 6.37,-10.295l-1.577,-6.283c-0.996,-3.97 1.512,-8.011 5.62,-9.042c4.108,-1.031 8.227,1.348 9.223,5.317l6.16,24.544c1.126,4.488 5.806,7.202 10.467,6.034c4.66,-1.17 7.504,-5.773 6.378,-10.261l-7.007,-27.927c-1.118,-4.453 1.701,-9.013 6.326,-10.174c4.591,-1.152 9.264,1.529 10.381,5.982l3.82,15.223c1.23,4.902 6.334,7.84 11.374,6.576c5.04,-1.265 8.152,-6.266 6.922,-11.167l-2.781,-11.081c-1.126,-4.488 1.718,-9.091 6.379,-10.26c4.66,-1.17 9.341,1.545 10.467,6.032l0.563,2.244c1.351,5.385 6.974,8.635 12.531,7.24c5.558,-1.395 8.989,-6.879 7.629,-12.299l-0.538,-2.14c-1.203,-4.798 1.83,-9.669 6.802,-10.917c4.936,-1.238 9.953,1.649 11.149,6.413l4.071,16.224c1.456,5.799 7.458,9.247 13.43,7.748c5.972,-1.498 9.626,-7.406 8.18,-13.17l-5.224,-20.816" style="fill:none;fill-rule:nonzero;stroke:#fff;stroke-width:2.78px;"/><path d="M175.248,111.285l-98.174,24.637c-5.489,1.377 -8.825,6.947 -7.447,12.436l11.062,44.082l118.058,-29.626l-11.062,-44.082c-1.377,-5.489 -6.948,-8.824 -12.437,-7.447Z" style="fill:none;fill-rule:nonzero;stroke:#fff;stroke-width:2.78px;"/><path d="M72.815,161.062c0.832,3.314 4.303,5.304 7.721,4.447c3.452,-0.867 5.538,-4.252 4.706,-7.566l-1.169,-4.66c-0.737,-2.935 1.125,-5.897 4.129,-6.651c3.037,-0.762 6.051,1.014 6.779,3.914l4.539,18.088c0.832,3.314 4.269,5.313 7.721,4.447c3.417,-0.858 5.538,-4.252 4.706,-7.565l-5.171,-20.609c-0.823,-3.28 1.271,-6.63 4.655,-7.479c3.382,-0.85 6.811,1.116 7.634,4.395l2.815,11.219c0.91,3.625 4.675,5.762 8.403,4.826c3.729,-0.935 6.03,-4.631 5.129,-8.222l-2.053,-8.181c-0.832,-3.314 1.254,-6.699 4.707,-7.566c3.417,-0.857 6.888,1.134 7.72,4.448l0.416,1.656c0.996,3.97 5.116,6.349 9.224,5.318c4.107,-1.03 6.616,-5.073 5.62,-9.042l-0.399,-1.588c-0.884,-3.522 1.366,-7.132 5.025,-8.05c3.66,-0.918 7.347,1.202 8.231,4.723l2.997,11.944c1.074,4.281 5.496,6.84 9.914,5.731c4.419,-1.108 7.108,-5.452 6.034,-9.733l-3.855,-15.361" style="fill:none;fill-rule:nonzero;stroke:#fff;stroke-width:2.78px;"/><path d="M150.192,66.128l-72.353,18.157c-5.489,1.377 -8.825,6.948 -7.447,12.436l9.65,38.456l92.237,-23.147l-9.65,-38.455c-1.377,-5.489 -6.948,-8.824 -12.437,-7.447Z" style="fill:none;fill-rule:nonzero;stroke:#fff;stroke-width:2.78px;"/><path d="M72.991,107.077c0.65,2.589 3.353,4.149 6.046,3.474c2.692,-0.676 4.339,-3.328 3.689,-5.917l-0.91,-3.624c-0.572,-2.278 0.859,-4.619 3.241,-5.217c2.347,-0.589 4.749,0.79 5.32,3.069l2.573,10.252c0.649,2.589 3.353,4.149 6.011,3.482c2.692,-0.676 4.304,-3.319 3.655,-5.908l-3.067,-12.22c-0.641,-2.554 0.97,-5.197 3.629,-5.864c2.658,-0.667 5.318,0.867 5.968,3.456l2.2,8.768c0.71,2.831 3.629,4.52 6.563,3.784c2.9,-0.728 4.71,-3.604 4,-6.434l-1.603,-6.387c-0.649,-2.589 0.997,-5.24 3.655,-5.907c2.692,-0.676 5.361,0.893 6.011,3.482l0.329,1.312c0.78,3.106 4.001,4.976 7.211,4.171c3.211,-0.806 5.167,-3.975 4.388,-7.082l-0.312,-1.243c-0.693,-2.761 1.056,-5.586 3.922,-6.305c2.865,-0.718 5.741,0.945 6.434,3.707l2.348,9.355c0.84,3.348 4.311,5.339 7.764,4.472c3.452,-0.866 5.572,-4.26 4.732,-7.609l-3.015,-12.012" style="fill:none;fill-rule:nonzero;stroke:#fff;stroke-width:2.78px;"/><path d="M237.089,249.074l-149.472,37.508c-9.32,2.339 -18.777,-3.324 -21.116,-12.644l183.267,-45.989c2.304,9.329 -3.359,18.786 -12.679,21.125Z" style="fill:none;fill-rule:nonzero;stroke:#fff;stroke-width:2.78px;"/></g></g><g><clipPath id="_clip2"><path d="M1392.87,33.333l55.44,220.928l-220.928,55.44l-55.44,-220.928l220.928,-55.44Z"/></clipPath><g clip-path="url(#_clip2)"><path d="M1381.77,160.068l-140.22,35.188c-5.488,1.377 -8.824,6.947 -7.447,12.436l15.896,63.344l160.104,-40.177l-15.896,-63.344c-1.377,-5.488 -6.948,-8.824 -12.437,-7.447Z" style="fill:none;fill-rule:nonzero;stroke:#fff;stroke-width:2.78px;"/><path d="M1239.31,228.438c1.135,4.523 5.816,7.238 10.476,6.068c4.66,-1.169 7.505,-5.773 6.37,-10.295l-1.576,-6.283c-0.996,-3.97 1.512,-8.011 5.62,-9.042c4.108,-1.031 8.227,1.348 9.223,5.317l6.16,24.544c1.126,4.488 5.806,7.202 10.467,6.034c4.66,-1.17 7.504,-5.773 6.378,-10.261l-7.008,-27.927c-1.117,-4.453 1.701,-9.013 6.327,-10.174c4.591,-1.152 9.263,1.529 10.381,5.982l3.82,15.223c1.23,4.902 6.334,7.84 11.374,6.576c5.04,-1.265 8.152,-6.266 6.922,-11.167l-2.781,-11.081c-1.127,-4.488 1.718,-9.091 6.378,-10.26c4.66,-1.17 9.342,1.545 10.468,6.032l0.562,2.244c1.352,5.385 6.974,8.635 12.532,7.24c5.558,-1.395 8.988,-6.879 7.628,-12.299l-0.537,-2.14c-1.204,-4.798 1.83,-9.669 6.801,-10.917c4.936,-1.238 9.954,1.649 11.15,6.413l4.071,16.224c1.455,5.799 7.458,9.247 13.429,7.748c5.973,-1.498 9.627,-7.406 8.18,-13.17l-5.223,-20.816" style="fill:none;fill-rule:nonzero;stroke:#fff;stroke-width:2.78px;"/><path d="M1347.19,111.285l-98.174,24.637c-5.489,1.377 -8.825,6.947 -7.448,12.436l11.063,44.082l118.058,-29.626l-11.062,-44.082c-1.377,-5.489 -6.948,-8.824 -12.437,-7.447Z" style="fill:none;fill-rule:nonzero;stroke:#fff;stroke-width:2.78px;"/><path d="M1244.75,161.062c0.831,3.314 4.303,5.304 7.72,4.447c3.453,-0.867 5.539,-4.252 4.707,-7.566l-1.169,-4.66c-0.737,-2.935 1.125,-5.897 4.128,-6.651c3.038,-0.762 6.052,1.014 6.78,3.914l4.539,18.088c0.831,3.314 4.269,5.313 7.721,4.447c3.417,-0.858 5.538,-4.252 4.706,-7.565l-5.172,-20.609c-0.822,-3.28 1.272,-6.63 4.655,-7.479c3.383,-0.85 6.811,1.116 7.635,4.395l2.815,11.219c0.91,3.625 4.675,5.762 8.403,4.826c3.728,-0.935 6.03,-4.631 5.129,-8.222l-2.053,-8.181c-0.832,-3.314 1.254,-6.699 4.706,-7.566c3.418,-0.857 6.889,1.134 7.721,4.448l0.416,1.656c0.996,3.97 5.116,6.349 9.223,5.318c4.108,-1.03 6.616,-5.073 5.62,-9.042l-0.398,-1.588c-0.884,-3.522 1.366,-7.132 5.025,-8.05c3.659,-0.918 7.347,1.202 8.231,4.723l2.997,11.944c1.074,4.281 5.496,6.84 9.914,5.731c4.419,-1.108 7.108,-5.452 6.034,-9.733l-3.855,-15.361" style="fill:none;fill-rule:nonzero;stroke:#fff;stroke-width:2.78px;"/><path d="M1322.13,66.128l-72.353,18.157c-5.489,1.377 -8.825,6.948 -7.448,12.436l9.65,38.456l92.238,-23.147l-9.65,-38.455c-1.378,-5.489 -6.948,-8.824 -12.437,-7.447Z" style="fill:none;fill-rule:nonzero;stroke:#fff;stroke-width:2.78px;"/><path d="M1244.93,107.077c0.649,2.589 3.353,4.149 6.045,3.474c2.693,-0.676 4.339,-3.328 3.689,-5.917l-0.909,-3.624c-0.572,-2.278 0.859,-4.619 3.241,-5.217c2.347,-0.589 4.748,0.79 5.32,3.069l2.573,10.252c0.649,2.589 3.353,4.149 6.01,3.482c2.693,-0.676 4.305,-3.319 3.655,-5.908l-3.066,-12.22c-0.641,-2.554 0.97,-5.197 3.629,-5.864c2.657,-0.667 5.317,0.867 5.967,3.456l2.2,8.768c0.711,2.831 3.63,4.52 6.564,3.784c2.9,-0.728 4.71,-3.604 4,-6.434l-1.603,-6.387c-0.65,-2.589 0.997,-5.24 3.655,-5.907c2.692,-0.676 5.361,0.893 6.01,3.482l0.33,1.312c0.779,3.106 4.001,4.976 7.211,4.171c3.211,-0.806 5.167,-3.975 4.388,-7.082l-0.312,-1.243c-0.693,-2.761 1.056,-5.586 3.922,-6.305c2.865,-0.718 5.741,0.945 6.434,3.707l2.347,9.355c0.84,3.348 4.312,5.339 7.764,4.472c3.453,-0.866 5.573,-4.26 4.733,-7.609l-3.015,-12.012" style="fill:none;fill-rule:nonzero;stroke:#fff;stroke-width:2.78px;"/><path d="M1409.03,249.074l-149.472,37.508c-9.32,2.339 -18.777,-3.324 -21.116,-12.644l183.267,-45.989c2.304,9.329 -3.359,18.786 -12.679,21.125Z" style="fill:none;fill-rule:nonzero;stroke:#fff;stroke-width:2.78px;"/></g></g><g><clipPath id="_clip3"><path d="M2163.99,28.949l-28.95,242.724l-242.724,-28.949l28.949,-242.724l242.725,28.949Z"/></clipPath><g clip-path="url(#_clip3)"><path d="M2111.35,228.151l-185.759,-22.155l7.323,-61.402c1.298,-10.885 11.184,-18.63 22.031,-17.336l146.393,17.46c10.885,1.298 18.63,11.184 17.336,22.031l-7.324,61.402Z" style="fill:none;fill-rule:nonzero;stroke:#fff;stroke-width:2.78px;"/><path d="M2124.17,229.679l-211.398,-25.212l-0.059,0.493c-1.492,12.515 7.426,23.849 19.942,25.342l166.114,19.812c12.515,1.493 23.849,-7.426 25.342,-19.941l0.059,-0.494Z" style="fill:none;fill-rule:nonzero;stroke:#fff;stroke-width:2.78px;"/><path d="M2115.47,193.562c-20.139,-2.401 -21.229,-19.379 -21.229,-19.379c-0,-0 -5.092,16.24 -25.192,13.843c-20.101,-2.398 -21.23,-19.38 -21.23,-19.38c0,0 -5.091,16.241 -25.229,13.839c-20.138,-2.402 -21.229,-19.38 -21.229,-19.38c-0,-0 -5.092,16.241 -25.192,13.843c-20.138,-2.401 -21.23,-19.379 -21.23,-19.379c0,-0 -5.091,16.24 -25.191,13.843" style="fill:none;fill-rule:nonzero;stroke:#fff;stroke-width:2.78px;"/><path d="M1961.91,152.053c-0.412,3.451 -3.554,5.923 -7.005,5.511c-3.451,-0.411 -5.923,-3.553 -5.511,-7.004c0.412,-3.451 3.553,-5.923 7.004,-5.511c3.451,0.412 5.923,3.553 5.512,7.004Z" style="fill:none;fill-rule:nonzero;stroke:#fff;stroke-width:2.78px;"/><path d="M2008.37,157.594c-0.412,3.451 -3.553,5.923 -7.004,5.511c-3.451,-0.412 -5.923,-3.553 -5.512,-7.004c0.412,-3.451 3.553,-5.923 7.005,-5.512c3.451,0.412 5.923,3.554 5.511,7.005Z" style="fill:none;fill-rule:nonzero;stroke:#fff;stroke-width:2.78px;"/><path d="M2054.79,163.131c-0.412,3.451 -3.553,5.922 -7.004,5.511c-3.451,-0.412 -5.923,-3.553 -5.511,-7.004c0.411,-3.451 3.553,-5.924 7.004,-5.512c3.451,0.412 5.923,3.553 5.511,7.005Z" style="fill:none;fill-rule:nonzero;stroke:#fff;stroke-width:2.78px;"/><path d="M2101.25,168.671c-0.412,3.452 -3.553,5.923 -7.004,5.512c-3.452,-0.412 -5.923,-3.553 -5.512,-7.004c0.412,-3.452 3.553,-5.923 7.004,-5.512c3.452,0.412 5.924,3.553 5.512,7.004Z" style="fill:none;fill-rule:nonzero;stroke:#fff;stroke-width:2.78px;"/><path d="M2099.46,144.61l-142.676,-17.017l5.075,-42.552c1.298,-10.885 11.184,-18.63 22.031,-17.336l103.272,12.317c10.884,1.298 18.629,11.184 17.335,22.031l-5.075,42.553l0.038,0.004Z" style="fill:none;fill-rule:nonzero;stroke:#fff;stroke-width:2.78px;"/><path d="M2044.92,74.983c0,-0 -16.361,35.591 -60.447,55.95" style="fill:none;fill-rule:nonzero;stroke:#fff;stroke-width:2.78px;"/><path d="M2062.36,77.064c-0,-0 -7.013,30.743 -51.383,57.032" style="fill:none;fill-rule:nonzero;stroke:#fff;stroke-width:2.78px;"/><path d="M2042.69,137.839c33.497,-15.43 51.012,-39.728 57.447,-50.462" style="fill:none;fill-rule:nonzero;stroke:#fff;stroke-width:2.78px;"/><path d="M2103.13,113.544c-7.659,8.742 -18.539,18.368 -33.894,27.461" style="fill:none;fill-rule:nonzero;stroke:#fff;stroke-width:2.78px;"/><path d="M1959.6,104.042c20.73,-17.722 29.038,-35.771 29.038,-35.771" style="fill:none;fill-rule:nonzero;stroke:#fff;stroke-width:2.78px;"/><path d="M1956.98,125.963c42.33,-25.955 49.099,-55.612 49.099,-55.612" style="fill:none;fill-rule:nonzero;stroke:#fff;stroke-width:2.78px;"/><path d="M2084.09,79.656l-97.09,-11.58l2.705,-22.68c1.299,-10.884 11.185,-18.629 22.032,-17.335l57.647,6.875c10.884,1.298 18.629,11.184 17.335,22.031l-2.705,22.68l0.076,0.009Z" style="fill:none;fill-rule:nonzero;stroke:#fff;stroke-width:2.78px;"/><path d="M1927.3,191.659l185.76,22.155" style="fill:none;fill-rule:nonzero;stroke:#fff;stroke-width:2.78px;"/><path d="M1989.27,49.075l97.09,11.58" style="fill:none;fill-rule:nonzero;stroke:#fff;stroke-width:2.78px;"/></g></g><path d="M1458.86,483.898l-36.072,-3.197c-7.614,-0.675 -13.515,-6.976 -13.698,-14.607l-0.909,-39.547c-0.159,-6.563 5.43,-11.786 11.956,-11.207l54.3,4.813c6.702,0.594 11.291,6.986 9.705,13.512l-9.334,38.787c-1.766,7.222 -8.54,12.103 -15.948,11.446Z" style="fill:none;fill-rule:nonzero;stroke:#fff;stroke-width:2.78px;"/><path d="M1417.9,415.142c-0,-0 -12.275,-6.925 -6.071,-20.094c6.204,-13.169 38.813,14.73 60.578,8.185c21.736,-6.547 22.001,14.868 5.245,17.709" style="fill:none;fill-rule:nonzero;stroke:#fff;stroke-width:2.78px;"/><path d="M1419.78,391.576c-0,-0 -4.421,-15.978 8.802,-17.413c13.224,-1.435 25.308,16.999 42.491,10.344c21.448,-8.321 19.688,12.205 9.616,17.534" style="fill:none;fill-rule:nonzero;stroke:#fff;stroke-width:2.78px;"/><path d="M1434.61,374.727c0,-0 -5.098,-11.682 6.644,-12.774c11.738,-1.064 13.137,12.245 26.872,9.048c13.735,-3.197 20.858,2.353 13.515,11.657" style="fill:none;fill-rule:nonzero;stroke:#fff;stroke-width:2.78px;"/><path d="M1475.74,360.624c-0.582,6.556 -6.374,11.405 -12.93,10.824c-6.556,-0.581 -11.405,-6.373 -10.824,-12.929c0.581,-6.556 6.374,-11.406 12.93,-10.825c6.585,0.584 11.405,6.374 10.824,12.93Z" style="fill:none;fill-rule:nonzero;stroke:#fff;stroke-width:2.78px;"/><path d="M1465.44,347.741c-0,0 -0.414,-15.385 19.008,-17.9" style="fill:none;fill-rule:nonzero;stroke:#fff;stroke-width:2.78px;"/><path d="M1482.56,419.392l0.029,0.002l45.972,23.216c1.048,0.538 1.942,1.15 2.703,1.929l0.029,0.002c3.763,3.682 4.506,9.673 1.288,14.218l-23.037,32.595c-4.27,6.051 -12.362,8.089 -19.025,4.714l-25.465,-12.895" style="fill:none;fill-rule:nonzero;stroke:#fff;stroke-width:2.78px;"/><path d="M1531.26,444.539l0.03,0.002c14.136,2.972 21.773,-10.988 9.812,-16.434c-2.079,-0.954 -4.8,-1.67 -8.181,-1.969c-17.436,-1.516 -33.328,-24.465 -44.513,-30.316c-0.567,-0.288 -1.105,-0.572 -1.623,-0.736" style="fill:none;fill-rule:nonzero;stroke:#fff;stroke-width:2.78px;"/><path d="M1488.41,395.822c0,-0 1.786,-16.464 14.628,-12.926c12.839,3.568 17.206,25.17 35.619,25.35c23.002,0.231 13.755,18.641 2.421,19.829" style="fill:none;fill-rule:nonzero;stroke:#fff;stroke-width:2.78px;"/><path d="M1508.39,385.682c0,-0 -0.381,-12.745 10.908,-9.404c11.289,3.341 7.657,16.234 21.602,18.359c13.945,2.125 18.498,9.936 8.229,15.811" style="fill:none;fill-rule:nonzero;stroke:#fff;stroke-width:2.78px;"/><path d="M1551.85,387.786c-2.98,5.869 -10.122,8.228 -16.024,5.276c-5.868,-2.98 -8.228,-10.123 -5.275,-16.024c2.979,-5.869 10.122,-8.229 16.023,-5.276c5.899,2.982 8.255,10.154 5.276,16.024Z" style="fill:none;fill-rule:nonzero;stroke:#fff;stroke-width:2.78px;"/><path d="M1547.06,372.013c0,-0 5.311,-14.463 24.286,-9.581" style="fill:none;fill-rule:nonzero;stroke:#fff;stroke-width:2.78px;"/><path d="M1427.41,448.548l-0.277,32.539" style="fill:none;fill-rule:nonzero;stroke:#fff;stroke-width:2.78px;"/><path d="M1446.63,441.688l-3.616,40.806" style="fill:none;fill-rule:nonzero;stroke:#fff;stroke-width:2.78px;"/><path d="M1464.89,451.871l-8.244,31.832" style="fill:none;fill-rule:nonzero;stroke:#fff;stroke-width:2.78px;"/><path d="M1487.57,494.562l17.61,-25.846" style="fill:none;fill-rule:nonzero;stroke:#fff;stroke-width:2.78px;"/><path d="M1487.67,463.074l-11.949,25.489" style="fill:none;fill-rule:nonzero;stroke:#fff;stroke-width:2.78px;"/><g><clipPath id="_clip4"><path d="M1940.12,321.409l-26.964,209.382l-209.382,-26.965l26.964,-209.382l209.382,26.965Z"/></clipPath><g clip-path="url(#_clip4)"><path d="M1743.87,387.197l0.248,-1.93c1.546,-12.007 12.551,-20.501 24.558,-18.954l116.501,15.003c12.04,1.55 20.534,12.555 18.988,24.562l-0.249,1.93" style="fill:none;fill-rule:nonzero;stroke:#fff;stroke-width:2.78px;"/><path d="M1732.83,472.946c-1.435,11.921 7.038,22.823 18.98,24.361l116.501,15.004c11.974,1.541 22.934,-6.858 24.565,-18.754" style="fill:none;fill-rule:nonzero;stroke:#fff;stroke-width:2.78px;"/><path d="M1734.59,459.303l7.529,-58.464" style="fill:none;fill-rule:nonzero;stroke:#fff;stroke-width:2.78px;"/><path d="M1894.63,479.914l7.53,-58.463" style="fill:none;fill-rule:nonzero;stroke:#fff;stroke-width:2.78px;"/><path d="M1903.86,421.67l-163.449,-21.049c-3.763,-0.485 -6.446,-3.924 -5.957,-7.719c0.484,-3.762 3.923,-6.445 7.718,-5.957l163.449,21.049c3.762,0.485 6.445,3.924 5.956,7.719c-0.488,3.795 -3.955,6.441 -7.717,5.957Z" style="fill:none;fill-rule:nonzero;stroke:#fff;stroke-width:2.78px;"/><path d="M1894.58,493.776l-163.449,-21.049c-3.762,-0.485 -6.446,-3.924 -5.957,-7.719c0.485,-3.762 3.923,-6.446 7.718,-5.957l163.449,21.05c3.762,0.484 6.446,3.922 5.957,7.717c-0.489,3.796 -3.956,6.442 -7.718,5.958Z" style="fill:none;fill-rule:nonzero;stroke:#fff;stroke-width:2.78px;"/><path d="M1740.11,416.445c13.315,1.715 11.63,14.802 24.978,16.521c13.348,1.718 15.034,-11.368 28.349,-9.653c13.348,1.719 11.663,14.805 24.978,16.52c13.348,1.719 15.033,-11.367 28.349,-9.652c13.348,1.718 11.663,14.805 25.011,16.523c13.348,1.72 15.033,-11.367 28.381,-9.648" style="fill:none;fill-rule:nonzero;stroke:#fff;stroke-width:2.78px;"/><path d="M1796.85,369.941l-16.489,-2.124l2.726,-21.167c0.27,-2.094 2.186,-3.544 4.247,-3.278l8.931,1.15c2.094,0.27 3.543,2.186 3.278,4.247l-2.726,21.167l0.033,0.005Z" style="fill:none;fill-rule:nonzero;stroke:#fff;stroke-width:2.78px;"/><path d="M1797.06,334.746c-2.476,1.411 -5.679,1.231 -7.947,-0.524c-1.726,-1.32 -3.133,-3.563 -1.938,-7.167c2.401,-7.274 8.28,-11.606 8.28,-11.606c-0,0 9.712,14.721 1.605,19.297Z" style="fill:none;fill-rule:nonzero;stroke:#fff;stroke-width:2.78px;"/><path d="M1835.19,374.878l-16.489,-2.124l2.727,-21.167c0.269,-2.093 2.185,-3.543 4.246,-3.277l8.932,1.15c2.094,0.269 3.543,2.186 3.278,4.247l-2.726,21.167l0.032,0.004Z" style="fill:none;fill-rule:nonzero;stroke:#fff;stroke-width:2.78px;"/><path d="M1835.4,339.684c-2.476,1.411 -5.68,1.231 -7.948,-0.524c-1.726,-1.32 -3.133,-3.564 -1.937,-7.168c2.4,-7.274 8.279,-11.605 8.279,-11.605c0,-0 9.712,14.72 1.606,19.297Z" style="fill:none;fill-rule:nonzero;stroke:#fff;stroke-width:2.78px;"/><path d="M1871.63,379.572l-16.488,-2.124l2.726,-21.167c0.269,-2.094 2.185,-3.543 4.246,-3.278l8.932,1.15c2.094,0.27 3.543,2.186 3.278,4.248l-2.726,21.167l0.032,0.004Z" style="fill:none;fill-rule:nonzero;stroke:#fff;stroke-width:2.78px;"/><path d="M1871.81,344.373c-2.476,1.411 -5.679,1.231 -7.947,-0.524c-1.693,-1.316 -3.1,-3.559 -1.938,-7.168c2.4,-7.273 8.28,-11.605 8.28,-11.605c-0,0 9.744,14.725 1.605,19.297Z" style="fill:none;fill-rule:nonzero;stroke:#fff;stroke-width:2.78px;"/><path d="M1738.16,431.527c13.315,1.715 11.63,14.801 24.978,16.521c13.348,1.719 15.033,-11.368 28.349,-9.653c13.348,1.719 11.663,14.806 24.978,16.52c13.348,1.719 15.033,-11.367 28.349,-9.653c13.348,1.72 11.662,14.806 25.011,16.525c13.347,1.719 15.033,-11.368 28.381,-9.649" style="fill:none;fill-rule:nonzero;stroke:#fff;stroke-width:2.78px;"/></g></g><path d="M513.133,145.142c46.177,5.5 58.361,43.885 58.361,43.885l-138.646,38.424l33.993,-79.063c8.823,-1.986 16.92,-3.131 24.368,-3.666" style="fill:none;fill-rule:nonzero;stroke:#fff;stroke-width:2.78px;"/><path d="M432.848,227.451l0,57.062l138.761,-47.284l-0.115,-48.202" style="fill:none;fill-rule:nonzero;stroke:#fff;stroke-width:2.78px;"/><path d="M571.609,208.239c-0.039,-0 -0.039,-0 -0.076,0.038c-11.497,3.552 -9.664,16.271 -21.199,19.823c-11.573,3.514 -15.354,-8.784 -26.926,-5.232c-11.535,3.551 -7.83,15.812 -19.365,19.364c-11.573,3.552 -15.316,-8.785 -26.889,-5.233c-11.535,3.514 -7.83,15.813 -19.365,19.365c-10.885,3.361 -14.858,-7.41 -24.979,-5.691" style="fill:none;fill-rule:nonzero;stroke:#fff;stroke-width:2.78px;"/><path d="M509.62,104.312c1.948,0 3.514,1.566 3.514,3.514l-0,63.288c-0,3.17 -4.889,5.768 -10.962,5.768c-6.073,-0 -10.962,-2.598 -10.962,-5.768l-0,-63.288c-0,-1.948 1.566,-3.514 3.514,-3.514l14.896,0Z" style="fill:none;fill-rule:nonzero;stroke:#fff;stroke-width:2.78px;"/><path d="M502.096,94.114c-0,0 -14.935,-0.955 -8.097,-16.233c5.92,-13.253 5.652,-17.951 5.652,-17.951c0,0 13.177,9.281 11.382,25.132c-1.069,9.472 -8.937,9.052 -8.937,9.052Z" style="fill:none;fill-rule:nonzero;stroke:#fff;stroke-width:2.78px;"/><path d="M445.949,158.854l-22.993,50.378" style="fill:none;fill-rule:nonzero;stroke:#fff;stroke-width:2.78px;"/><path d="M555.835,145.791c0,0 14.781,7.143 23.643,24.521" style="fill:none;fill-rule:nonzero;stroke:#fff;stroke-width:2.78px;"/><g><clipPath id="_clip5"><path d="M987.073,51.171l-28.95,242.724l-242.724,-28.949l28.949,-242.724l242.725,28.949Z"/></clipPath><g clip-path="url(#_clip5)"><path d="M934.426,250.373l-185.759,-22.155l7.323,-61.402c1.298,-10.884 11.184,-18.629 22.031,-17.335l146.393,17.459c10.885,1.298 18.63,11.184 17.336,22.031l-7.324,61.402Z" style="fill:none;fill-rule:nonzero;stroke:#fff;stroke-width:2.78px;"/><path d="M947.246,251.902l-211.398,-25.213l-0.059,0.493c-1.492,12.515 7.426,23.849 19.942,25.342l166.114,19.812c12.515,1.493 23.849,-7.426 25.342,-19.941l0.059,-0.493Z" style="fill:none;fill-rule:nonzero;stroke:#fff;stroke-width:2.78px;"/><path d="M938.552,215.784c-20.139,-2.401 -21.229,-19.379 -21.229,-19.379c-0,-0 -5.092,16.241 -25.192,13.843c-20.101,-2.397 -21.23,-19.38 -21.23,-19.38c0,0 -5.091,16.241 -25.229,13.839c-20.138,-2.402 -21.229,-19.38 -21.229,-19.38c-0,0 -5.092,16.241 -25.192,13.844c-20.138,-2.402 -21.23,-19.38 -21.23,-19.38c0,0 -5.091,16.241 -25.191,13.843" style="fill:none;fill-rule:nonzero;stroke:#fff;stroke-width:2.78px;"/><path d="M784.989,174.275c-0.412,3.451 -3.554,5.923 -7.005,5.512c-3.451,-0.412 -5.923,-3.554 -5.511,-7.005c0.412,-3.451 3.553,-5.923 7.004,-5.511c3.451,0.412 5.923,3.553 5.512,7.004Z" style="fill:none;fill-rule:nonzero;stroke:#fff;stroke-width:2.78px;"/><path d="M831.447,179.816c-0.412,3.451 -3.553,5.923 -7.004,5.511c-3.451,-0.411 -5.923,-3.553 -5.512,-7.004c0.412,-3.451 3.553,-5.922 7.005,-5.511c3.451,0.411 5.923,3.553 5.511,7.004Z" style="fill:none;fill-rule:nonzero;stroke:#fff;stroke-width:2.78px;"/><path d="M877.868,185.353c-0.412,3.451 -3.553,5.923 -7.004,5.511c-3.451,-0.412 -5.924,-3.553 -5.512,-7.004c0.412,-3.451 3.553,-5.923 7.004,-5.512c3.452,0.412 5.923,3.553 5.512,7.005Z" style="fill:none;fill-rule:nonzero;stroke:#fff;stroke-width:2.78px;"/><path d="M924.328,190.893c-0.412,3.452 -3.553,5.924 -7.004,5.512c-3.451,-0.412 -5.924,-3.553 -5.512,-7.004c0.412,-3.452 3.553,-5.923 7.004,-5.512c3.452,0.412 5.923,3.553 5.512,7.004Z" style="fill:none;fill-rule:nonzero;stroke:#fff;stroke-width:2.78px;"/><path d="M922.542,166.832l-142.676,-17.016l5.075,-42.553c1.298,-10.885 11.184,-18.63 22.031,-17.336l103.272,12.317c10.884,1.298 18.629,11.184 17.335,22.031l-5.075,42.553l0.038,0.004Z" style="fill:none;fill-rule:nonzero;stroke:#fff;stroke-width:2.78px;"/><path d="M867.994,97.205c0,-0 -16.361,35.591 -60.447,55.951" style="fill:none;fill-rule:nonzero;stroke:#fff;stroke-width:2.78px;"/><path d="M885.441,99.286c-0,0 -7.013,30.743 -51.383,57.032" style="fill:none;fill-rule:nonzero;stroke:#fff;stroke-width:2.78px;"/><path d="M865.768,160.061c33.497,-15.43 51.011,-39.728 57.446,-50.462" style="fill:none;fill-rule:nonzero;stroke:#fff;stroke-width:2.78px;"/><path d="M926.21,135.767c-7.659,8.741 -18.539,18.367 -33.894,27.46" style="fill:none;fill-rule:nonzero;stroke:#fff;stroke-width:2.78px;"/><path d="M782.675,126.264c20.73,-17.722 29.038,-35.771 29.038,-35.771" style="fill:none;fill-rule:nonzero;stroke:#fff;stroke-width:2.78px;"/><path d="M780.06,148.185c42.33,-25.954 49.099,-55.612 49.099,-55.612" style="fill:none;fill-rule:nonzero;stroke:#fff;stroke-width:2.78px;"/><path d="M907.171,101.878l-97.09,-11.58l2.705,-22.679c1.299,-10.885 11.185,-18.63 22.032,-17.336l57.647,6.875c10.884,1.298 18.629,11.185 17.335,22.031l-2.705,22.68l0.076,0.009Z" style="fill:none;fill-rule:nonzero;stroke:#fff;stroke-width:2.78px;"/><path d="M750.377,213.882l185.76,22.155" style="fill:none;fill-rule:nonzero;stroke:#fff;stroke-width:2.78px;"/><path d="M812.348,71.298l97.09,11.579" style="fill:none;fill-rule:nonzero;stroke:#fff;stroke-width:2.78px;"/></g></g><g><clipPath id="_clip6"><path d="M1175.86,249.999l37.197,241.598l-241.598,37.197l-37.197,-241.598l241.598,-37.197Z"/></clipPath><g clip-path="url(#_clip6)"><path d="M1161.86,487.923l-142.694,21.97c-4.983,0.767 -9.644,-2.65 -10.411,-7.634l-7.073,-45.941c-1.36,-8.833 4.708,-17.11 13.541,-18.47l128.802,-19.83c8.834,-1.36 17.11,4.708 18.47,13.541l7.068,45.904c0.729,4.989 -2.683,9.688 -7.703,10.46Z" style="fill:none;fill-rule:nonzero;stroke:#fff;stroke-width:2.78px;"/><path d="M1111.99,378.317l-13.892,2.139l6.713,43.6l13.892,-2.138l-6.713,-43.601Z" style="fill:none;fill-rule:nonzero;stroke:#fff;stroke-width:2.78px;"/><path d="M1130.75,375.428l-115.74,17.82c-5.625,0.866 -10.934,-2.993 -11.806,-8.655l-3.446,-22.386c-0.866,-5.625 2.992,-10.933 8.655,-11.805l115.703,-17.814c5.624,-0.866 10.933,2.993 11.805,8.655l3.446,22.386c0.872,5.662 -2.992,10.933 -8.617,11.799Z" style="fill:none;fill-rule:nonzero;stroke:#fff;stroke-width:2.78px;"/><path d="M1002.38,461.081l160.813,-24.759" style="fill:none;fill-rule:nonzero;stroke:#fff;stroke-width:2.78px;"/><path d="M1005.58,481.843c11.476,-1.767 12.714,6.274 24.19,4.507c11.476,-1.767 10.237,-9.807 21.713,-11.574c11.477,-1.767 12.714,6.273 24.19,4.507c11.476,-1.767 10.238,-9.808 21.714,-11.575c11.476,-1.766 12.714,6.274 24.228,4.501c11.513,-1.772 10.275,-9.813 21.751,-11.58c11.514,-1.772 12.752,6.268 24.227,4.502" style="fill:none;fill-rule:nonzero;stroke:#fff;stroke-width:2.78px;"/><path d="M1075.01,340.187l-19.025,2.93l-3.761,-24.424c-0.372,-2.416 1.294,-4.644 3.673,-5.01l10.305,-1.587c2.416,-0.372 4.644,1.295 5.01,3.673l3.76,24.424l0.038,-0.006Z" style="fill:none;fill-rule:nonzero;stroke:#fff;stroke-width:2.78px;"/><path d="M1030.05,306.185c-2.303,2.364 -5.924,3.192 -9.01,1.967c-2.344,-0.914 -4.63,-2.958 -4.456,-7.352c0.336,-8.863 5.487,-15.568 5.487,-15.568c-0,-0 15.528,13.26 7.979,20.953Z" style="fill:none;fill-rule:nonzero;stroke:#fff;stroke-width:2.78px;"/><path d="M1041.11,345.407l-19.025,2.929l-3.761,-24.424c-0.372,-2.416 1.295,-4.644 3.673,-5.01l10.305,-1.586c2.417,-0.373 4.644,1.294 5.01,3.672l3.76,24.424l0.038,-0.005Z" style="fill:none;fill-rule:nonzero;stroke:#fff;stroke-width:2.78px;"/><path d="M1063.91,300.972c-2.303,2.364 -5.924,3.192 -9.011,1.967c-2.343,-0.915 -4.629,-2.959 -4.455,-7.352c0.336,-8.863 5.487,-15.569 5.487,-15.569c-0,0 15.566,13.255 7.979,20.954Z" style="fill:none;fill-rule:nonzero;stroke:#fff;stroke-width:2.78px;"/><path d="M1109.96,334.806l-19.026,2.928l-3.76,-24.423c-0.372,-2.417 1.295,-4.644 3.672,-5.01l10.307,-1.587c2.415,-0.372 4.643,1.295 5.009,3.673l3.761,24.424l0.037,-0.005Z" style="fill:none;fill-rule:nonzero;stroke:#fff;stroke-width:2.78px;"/><path d="M1098.86,295.59c-2.303,2.364 -5.924,3.192 -9.011,1.967c-2.305,-0.92 -4.591,-2.965 -4.418,-7.358c0.337,-8.863 5.487,-15.568 5.487,-15.568c0,-0 15.528,13.26 7.942,20.959Z" style="fill:none;fill-rule:nonzero;stroke:#fff;stroke-width:2.78px;"/><path d="M1001.52,373.413l136.125,-20.958" style="fill:none;fill-rule:nonzero;stroke:#fff;stroke-width:2.78px;"/><path d="M1047.7,388.214l-13.891,2.139l6.712,43.601l13.892,-2.138l-6.713,-43.602Z" style="fill:none;fill-rule:nonzero;stroke:#fff;stroke-width:2.78px;"/></g></g><g><clipPath id="_clip7"><path d="M2312.33,249.999l37.196,241.598l-241.597,37.197l-37.197,-241.598l241.598,-37.197Z"/></clipPath><g clip-path="url(#_clip7)"><path d="M2298.34,487.923l-142.694,21.97c-4.983,0.767 -9.644,-2.65 -10.411,-7.634l-7.074,-45.941c-1.36,-8.833 4.709,-17.11 13.542,-18.47l128.802,-19.83c8.833,-1.36 17.11,4.708 18.47,13.541l7.067,45.904c0.73,4.989 -2.682,9.688 -7.702,10.46Z" style="fill:none;fill-rule:nonzero;stroke:#fff;stroke-width:2.78px;"/><path d="M2248.46,378.317l-13.892,2.139l6.713,43.6l13.892,-2.138l-6.713,-43.601Z" style="fill:none;fill-rule:nonzero;stroke:#fff;stroke-width:2.78px;"/><path d="M2267.22,375.428l-115.741,17.82c-5.625,0.866 -10.933,-2.993 -11.805,-8.655l-3.446,-22.386c-0.866,-5.625 2.992,-10.933 8.655,-11.805l115.702,-17.814c5.625,-0.866 10.934,2.993 11.805,8.655l3.447,22.386c0.872,5.662 -2.993,10.933 -8.617,11.799Z" style="fill:none;fill-rule:nonzero;stroke:#fff;stroke-width:2.78px;"/><path d="M2138.86,461.081l160.814,-24.759" style="fill:none;fill-rule:nonzero;stroke:#fff;stroke-width:2.78px;"/><path d="M2142.05,481.843c11.475,-1.767 12.714,6.274 24.189,4.507c11.476,-1.767 10.238,-9.807 21.714,-11.574c11.476,-1.767 12.714,6.273 24.19,4.507c11.476,-1.767 10.238,-9.808 21.713,-11.575c11.477,-1.766 12.714,6.274 24.228,4.501c11.514,-1.772 10.276,-9.813 21.752,-11.58c11.513,-1.772 12.752,6.268 24.227,4.502" style="fill:none;fill-rule:nonzero;stroke:#fff;stroke-width:2.78px;"/><path d="M2211.48,340.187l-19.026,2.93l-3.76,-24.424c-0.373,-2.416 1.294,-4.644 3.672,-5.01l10.306,-1.587c2.416,-0.372 4.643,1.295 5.01,3.673l3.76,24.424l0.038,-0.006Z" style="fill:none;fill-rule:nonzero;stroke:#fff;stroke-width:2.78px;"/><path d="M2166.52,306.185c-2.303,2.364 -5.924,3.192 -9.011,1.967c-2.344,-0.914 -4.629,-2.958 -4.455,-7.352c0.336,-8.863 5.486,-15.568 5.486,-15.568c0,-0 15.529,13.26 7.98,20.953Z" style="fill:none;fill-rule:nonzero;stroke:#fff;stroke-width:2.78px;"/><path d="M2177.58,345.407l-19.026,2.929l-3.76,-24.424c-0.372,-2.416 1.294,-4.644 3.673,-5.01l10.305,-1.586c2.416,-0.373 4.643,1.294 5.01,3.672l3.76,24.424l0.038,-0.005Z" style="fill:none;fill-rule:nonzero;stroke:#fff;stroke-width:2.78px;"/><path d="M2200.38,300.972c-2.302,2.364 -5.923,3.192 -9.01,1.967c-2.344,-0.915 -4.629,-2.959 -4.455,-7.352c0.335,-8.863 5.486,-15.569 5.486,-15.569c0,0 15.567,13.255 7.979,20.954Z" style="fill:none;fill-rule:nonzero;stroke:#fff;stroke-width:2.78px;"/><path d="M2246.44,334.806l-19.025,2.928l-3.761,-24.423c-0.371,-2.417 1.295,-4.644 3.673,-5.01l10.306,-1.587c2.416,-0.372 4.644,1.295 5.01,3.673l3.76,24.424l0.037,-0.005Z" style="fill:none;fill-rule:nonzero;stroke:#fff;stroke-width:2.78px;"/><path d="M2235.34,295.59c-2.302,2.364 -5.923,3.192 -9.01,1.967c-2.306,-0.92 -4.591,-2.965 -4.418,-7.358c0.336,-8.863 5.487,-15.568 5.487,-15.568c-0,-0 15.528,13.26 7.941,20.959Z" style="fill:none;fill-rule:nonzero;stroke:#fff;stroke-width:2.78px;"/><path d="M2137.99,373.413l136.125,-20.958" style="fill:none;fill-rule:nonzero;stroke:#fff;stroke-width:2.78px;"/><path d="M2184.17,388.214l-13.892,2.139l6.713,43.601l13.892,-2.138l-6.713,-43.602Z" style="fill:none;fill-rule:nonzero;stroke:#fff;stroke-width:2.78px;"/></g></g><path d="M291.377,483.898l-36.072,-3.197c-7.614,-0.675 -13.515,-6.976 -13.698,-14.607l-0.909,-39.547c-0.159,-6.563 5.43,-11.786 11.956,-11.207l54.3,4.813c6.703,0.594 11.291,6.986 9.705,13.512l-9.334,38.787c-1.766,7.222 -8.54,12.103 -15.948,11.446Z" style="fill:none;fill-rule:nonzero;stroke:#fff;stroke-width:2.78px;"/><path d="M250.42,415.142c0,-0 -12.275,-6.925 -6.071,-20.094c6.205,-13.169 38.813,14.73 60.579,8.185c21.735,-6.547 22,14.868 5.245,17.709" style="fill:none;fill-rule:nonzero;stroke:#fff;stroke-width:2.78px;"/><path d="M252.301,391.576c-0,-0 -4.421,-15.978 8.802,-17.413c13.224,-1.435 25.309,16.999 42.491,10.344c21.449,-8.321 19.689,12.205 9.616,17.534" style="fill:none;fill-rule:nonzero;stroke:#fff;stroke-width:2.78px;"/><path d="M267.129,374.727c-0,-0 -5.098,-11.682 6.643,-12.774c11.738,-1.064 13.137,12.245 26.872,9.048c13.735,-3.197 20.858,2.353 13.515,11.657" style="fill:none;fill-rule:nonzero;stroke:#fff;stroke-width:2.78px;"/><path d="M308.259,360.624c-0.581,6.556 -6.374,11.405 -12.93,10.824c-6.556,-0.581 -11.405,-6.373 -10.824,-12.929c0.581,-6.556 6.374,-11.406 12.93,-10.825c6.585,0.584 11.405,6.374 10.824,12.93Z" style="fill:none;fill-rule:nonzero;stroke:#fff;stroke-width:2.78px;"/><path d="M297.964,347.741c-0,0 -0.414,-15.385 19.009,-17.9" style="fill:none;fill-rule:nonzero;stroke:#fff;stroke-width:2.78px;"/><path d="M315.08,419.392l0.029,0.002l45.972,23.216c1.048,0.538 1.942,1.15 2.703,1.929l0.029,0.002c3.763,3.682 4.506,9.673 1.289,14.218l-23.038,32.595c-4.27,6.051 -12.361,8.089 -19.025,4.714l-25.465,-12.895" style="fill:none;fill-rule:nonzero;stroke:#fff;stroke-width:2.78px;"/><path d="M363.784,444.539l0.03,0.002c14.136,2.972 21.774,-10.988 9.812,-16.434c-2.078,-0.954 -4.8,-1.67 -8.181,-1.969c-17.436,-1.516 -33.327,-24.465 -44.512,-30.316c-0.568,-0.288 -1.105,-0.572 -1.624,-0.736" style="fill:none;fill-rule:nonzero;stroke:#fff;stroke-width:2.78px;"/><path d="M320.932,395.822c-0,-0 1.785,-16.464 14.627,-12.926c12.839,3.568 17.206,25.17 35.619,25.35c23.002,0.231 13.755,18.641 2.421,19.829" style="fill:none;fill-rule:nonzero;stroke:#fff;stroke-width:2.78px;"/><path d="M340.913,385.682c-0,-0 -0.381,-12.745 10.907,-9.404c11.289,3.341 7.658,16.234 21.603,18.359c13.945,2.125 18.497,9.936 8.228,15.811" style="fill:none;fill-rule:nonzero;stroke:#fff;stroke-width:2.78px;"/><path d="M384.371,387.786c-2.979,5.869 -10.122,8.228 -16.023,5.276c-5.869,-2.98 -8.229,-10.123 -5.276,-16.024c2.98,-5.869 10.122,-8.229 16.023,-5.276c5.899,2.982 8.255,10.154 5.276,16.024Z" style="fill:none;fill-rule:nonzero;stroke:#fff;stroke-width:2.78px;"/><path d="M379.577,372.013c-0,-0 5.311,-14.463 24.286,-9.581" style="fill:none;fill-rule:nonzero;stroke:#fff;stroke-width:2.78px;"/><path d="M259.933,448.548l-0.277,32.539" style="fill:none;fill-rule:nonzero;stroke:#fff;stroke-width:2.78px;"/><path d="M279.148,441.688l-3.617,40.806" style="fill:none;fill-rule:nonzero;stroke:#fff;stroke-width:2.78px;"/><path d="M297.415,451.871l-8.243,31.832" style="fill:none;fill-rule:nonzero;stroke:#fff;stroke-width:2.78px;"/><path d="M320.091,494.562l17.61,-25.846" style="fill:none;fill-rule:nonzero;stroke:#fff;stroke-width:2.78px;"/><path d="M320.186,463.074l-11.948,25.489" style="fill:none;fill-rule:nonzero;stroke:#fff;stroke-width:2.78px;"/><g><clipPath id="_clip8"><path d="M777.57,321.409l-26.965,209.382l-209.382,-26.965l26.965,-209.382l209.382,26.965Z"/></clipPath><g clip-path="url(#_clip8)"><path d="M581.32,387.197l0.248,-1.93c1.547,-12.007 12.551,-20.501 24.558,-18.954l116.502,15.003c12.039,1.55 20.533,12.555 18.987,24.562l-0.249,1.93" style="fill:none;fill-rule:nonzero;stroke:#fff;stroke-width:2.78px;"/><path d="M570.276,472.946c-1.435,11.921 7.039,22.823 18.98,24.361l116.502,15.004c11.973,1.541 22.933,-6.858 24.565,-18.754" style="fill:none;fill-rule:nonzero;stroke:#fff;stroke-width:2.78px;"/><path d="M572.034,459.303l7.529,-58.464" style="fill:none;fill-rule:nonzero;stroke:#fff;stroke-width:2.78px;"/><path d="M732.08,479.914l7.53,-58.463" style="fill:none;fill-rule:nonzero;stroke:#fff;stroke-width:2.78px;"/><path d="M741.31,421.67l-163.449,-21.049c-3.763,-0.485 -6.446,-3.924 -5.957,-7.719c0.484,-3.762 3.923,-6.445 7.718,-5.957l163.449,21.049c3.762,0.485 6.445,3.924 5.957,7.719c-0.489,3.795 -3.956,6.441 -7.718,5.957Z" style="fill:none;fill-rule:nonzero;stroke:#fff;stroke-width:2.78px;"/><path d="M732.024,493.776l-163.449,-21.049c-3.762,-0.485 -6.445,-3.924 -5.957,-7.719c0.485,-3.762 3.923,-6.446 7.718,-5.957l163.449,21.05c3.763,0.484 6.446,3.922 5.958,7.717c-0.489,3.796 -3.957,6.442 -7.719,5.958Z" style="fill:none;fill-rule:nonzero;stroke:#fff;stroke-width:2.78px;"/><path d="M577.553,416.445c13.316,1.715 11.63,14.802 24.978,16.521c13.348,1.718 15.034,-11.368 28.349,-9.653c13.348,1.719 11.663,14.805 24.978,16.52c13.348,1.719 15.033,-11.367 28.349,-9.652c13.348,1.718 11.663,14.805 25.011,16.523c13.348,1.72 15.033,-11.367 28.381,-9.648" style="fill:none;fill-rule:nonzero;stroke:#fff;stroke-width:2.78px;"/><path d="M634.294,369.941l-16.489,-2.124l2.726,-21.167c0.27,-2.094 2.186,-3.544 4.247,-3.278l8.931,1.15c2.094,0.27 3.544,2.186 3.278,4.247l-2.726,21.167l0.033,0.005Z" style="fill:none;fill-rule:nonzero;stroke:#fff;stroke-width:2.78px;"/><path d="M634.504,334.746c-2.476,1.411 -5.68,1.231 -7.948,-0.524c-1.726,-1.32 -3.133,-3.563 -1.937,-7.167c2.4,-7.274 8.279,-11.606 8.279,-11.606c0,0 9.712,14.721 1.606,19.297Z" style="fill:none;fill-rule:nonzero;stroke:#fff;stroke-width:2.78px;"/><path d="M672.638,374.878l-16.489,-2.124l2.726,-21.167c0.269,-2.093 2.185,-3.543 4.246,-3.277l8.932,1.15c2.094,0.27 3.543,2.186 3.278,4.247l-2.726,21.167l0.033,0.004Z" style="fill:none;fill-rule:nonzero;stroke:#fff;stroke-width:2.78px;"/><path d="M672.846,339.684c-2.476,1.411 -5.68,1.231 -7.947,-0.524c-1.726,-1.32 -3.134,-3.564 -1.938,-7.168c2.4,-7.274 8.279,-11.605 8.279,-11.605c0,0 9.712,14.72 1.606,19.297Z" style="fill:none;fill-rule:nonzero;stroke:#fff;stroke-width:2.78px;"/><path d="M709.084,379.572l-16.489,-2.124l2.726,-21.167c0.269,-2.094 2.185,-3.543 4.247,-3.278l8.931,1.15c2.094,0.27 3.544,2.186 3.278,4.248l-2.726,21.167l0.033,0.004Z" style="fill:none;fill-rule:nonzero;stroke:#fff;stroke-width:2.78px;"/><path d="M709.259,344.373c-2.477,1.411 -5.68,1.231 -7.948,-0.524c-1.693,-1.316 -3.1,-3.559 -1.937,-7.167c2.4,-7.274 8.279,-11.606 8.279,-11.606c0,0 9.744,14.725 1.606,19.297Z" style="fill:none;fill-rule:nonzero;stroke:#fff;stroke-width:2.78px;"/><path d="M575.611,431.527c13.315,1.715 11.63,14.801 24.978,16.521c13.348,1.719 15.034,-11.368 28.349,-9.653c13.348,1.719 11.663,14.806 24.978,16.52c13.348,1.719 15.033,-11.367 28.349,-9.653c13.348,1.72 11.663,14.806 25.011,16.525c13.348,1.719 15.033,-11.368 28.381,-9.649" style="fill:none;fill-rule:nonzero;stroke:#fff;stroke-width:2.78px;"/></g></g><path d="M1681.3,117.364c46.176,5.5 58.361,43.885 58.361,43.885l-138.646,38.424l33.993,-79.062c8.823,-1.987 16.92,-3.132 24.368,-3.667" style="fill:none;fill-rule:nonzero;stroke:#fff;stroke-width:2.78px;"/><path d="M1601.01,199.673l-0,57.063l138.76,-47.285l-0.114,-48.202" style="fill:none;fill-rule:nonzero;stroke:#fff;stroke-width:2.78px;"/><path d="M1739.77,180.461c-0.038,0 -0.038,0 -0.076,0.038c-11.497,3.553 -9.663,16.272 -21.198,19.823c-11.573,3.514 -15.354,-8.784 -26.927,-5.232c-11.535,3.552 -7.83,15.812 -19.365,19.364c-11.573,3.553 -15.316,-8.785 -26.889,-5.232c-11.534,3.514 -7.829,15.812 -19.364,19.364c-10.886,3.361 -14.858,-7.409 -24.979,-5.69" style="fill:none;fill-rule:nonzero;stroke:#fff;stroke-width:2.78px;"/><path d="M1677.78,76.534c1.948,0 3.514,1.567 3.514,3.514l0,63.289c0,3.17 -4.889,5.767 -10.962,5.767c-6.073,-0 -10.962,-2.597 -10.962,-5.767l0,-63.289c0,-1.947 1.566,-3.514 3.514,-3.514l14.896,0Z" style="fill:none;fill-rule:nonzero;stroke:#fff;stroke-width:2.78px;"/><path d="M1670.26,66.336c0,0 -14.934,-0.955 -8.097,-16.232c5.92,-13.254 5.653,-17.952 5.653,-17.952c-0,0 13.177,9.282 11.382,25.132c-1.07,9.472 -8.938,9.052 -8.938,9.052Z" style="fill:none;fill-rule:nonzero;stroke:#fff;stroke-width:2.78px;"/><path d="M1614.11,131.076l-22.993,50.378" style="fill:none;fill-rule:nonzero;stroke:#fff;stroke-width:2.78px;"/><path d="M1724,118.013c-0,0 14.781,7.143 23.642,24.521" style="fill:none;fill-rule:nonzero;stroke:#fff;stroke-width:2.78px;"/></g></svg>