<svg width="56" height="55" viewBox="0 0 56 55" fill="none" xmlns="http://www.w3.org/2000/svg">
<g id="healthicons:sugar-alt-outline">
<g id="Group">
<path id="Vector" fill-rule="evenodd" clip-rule="evenodd" d="M51.0962 20.4909C51.1317 20.7926 51.0459 21.0961 50.8576 21.3346C50.6694 21.5732 50.3942 21.7271 50.0924 21.7627C40.3391 22.9109 33.008 24.0246 26.9088 31.6536C25.3046 33.6588 24.0843 35.1289 23.0748 36.1888C22.0665 37.2475 21.2048 37.9683 20.2996 38.414C19.3669 38.8723 18.4811 38.9938 17.5232 39.0133C17.0216 39.0182 16.52 39.0109 16.0188 38.9915H16.0027C15.4029 38.9712 14.8028 38.9601 14.2026 38.9583C10.8831 38.9583 8.6373 36.9038 7.28865 35.0487C6.46463 33.9045 5.80723 32.6491 5.33615 31.3201L5.32927 31.2984L5.32698 31.2915V31.2892C5.32698 31.2892 5.32469 31.2869 6.41667 30.9374L5.32584 31.2869C5.27082 31.1151 5.25714 30.9328 5.2859 30.7547C5.31467 30.5766 5.38507 30.4078 5.49138 30.2621C5.59769 30.1164 5.7369 29.9978 5.89768 29.9161C6.05847 29.8343 6.23629 29.7916 6.41667 29.7916H25.4696C32.1441 21.7513 40.2669 20.6112 49.8243 19.4871C50.126 19.4516 50.4295 19.5374 50.6681 19.7256C50.9066 19.9138 51.0606 20.1891 51.0962 20.4909ZM23.611 32.0833H8.1549C8.40813 32.5771 8.73584 33.1409 9.14375 33.7012C10.293 35.2836 11.9396 36.6666 14.2026 36.6666C14.9096 36.6666 15.526 36.6849 16.0623 36.701H16.0829C16.6318 36.717 17.0775 36.7296 17.4774 36.7216C18.2543 36.7067 18.7688 36.6139 19.2878 36.3584C19.8355 36.0879 20.4795 35.5918 21.4145 34.6087C22.0287 33.9647 22.7402 33.142 23.611 32.0833Z" fill="black"/>
<path id="Vector_2" d="M6.41669 25.2083H8.70835V27.5H6.41669V25.2083ZM15.5834 25.2083H17.875V27.5H15.5834V25.2083ZM12.1459 24.7339L13.7661 26.3541L12.1459 27.9743L10.5256 26.3541L12.1459 24.7339ZM21.3125 24.7339L22.9327 26.3541L21.3125 27.9743L19.6923 26.3541L21.3125 24.7339ZM13.2917 20.625H15.5834V22.9166H13.2917V20.625ZM9.85419 20.1506L11.4744 21.7708L9.85419 23.391L8.23398 21.7708L9.85419 20.1506ZM14.4375 15.5673L16.0577 17.1875L14.4375 18.8077L12.8173 17.1875L14.4375 15.5673ZM19.0209 20.1506L20.6411 21.7708L19.0209 23.391L17.4006 21.7708L19.0209 20.1506Z" fill="black"/>
</g>
</g>
</svg>
