<svg xmlns="http://www.w3.org/2000/svg" version="1.1" xmlns:xlink="http://www.w3.org/1999/xlink" xmlns:svgjs="http://svgjs.dev/svgjs" viewBox="0 0 325 100"><rect width="100%" height="100%" fill="#efecec"></rect><g fill="#f9ec8b">
    <rect width="100%" height="40" fill="#f9ec8b"></rect>

    <rect x="0" width="7.69%" height="75.02739538374229" rx="15"></rect>
      <rect x="50" width="7.69%" height="59.430707312815485" rx="15"></rect>
      <rect x="100" width="7.69%" height="83.3273778643283" rx="15"></rect>
      <rect x="150" width="7.69%" height="59.849124757660746" rx="15"></rect>
      <rect x="200" width="7.69%" height="70.24632759874622" rx="15"></rect>
      <rect x="250" width="7.69%" height="59.5310848428367" rx="15"></rect>
      <rect x="300" width="7.69%" height="93.53775789955765" rx="15"></rect>
  </g><g fill="#efecec">
    <rect x="25" y="15.041549739604054" width="7.69%" height="60" rx="15"></rect>
      <rect x="75" y="27.781915939739715" width="7.69%" height="60" rx="15"></rect>
      <rect x="125" y="5.4458419871721695" width="7.69%" height="60" rx="15"></rect>
      <rect x="175" y="9.574546073281109" width="7.69%" height="60" rx="15"></rect>
      <rect x="225" y="18.584463462426708" width="7.69%" height="60" rx="15"></rect>
      <rect x="275" y="25.72621615256927" width="7.69%" height="60" rx="15"></rect>
  </g></svg>