<svg width="56" height="55" viewBox="0 0 56 55" fill="none" xmlns="http://www.w3.org/2000/svg">
<g id="ri:cake-3-line">
<path id="Vector" d="M33.1537 15C33.8415 14.9999 34.5208 15.1519 35.1431 15.445C35.7653 15.7381 36.315 16.1652 36.7529 16.6956C37.1908 17.226 37.506 17.8466 37.676 18.5131C37.8461 19.1795 37.8667 19.8753 37.7364 20.5507L37.7164 20.6387C38.8764 21.0256 39.8905 21.7576 40.6231 22.7367C41.3557 23.7157 41.7718 24.8952 41.8157 26.1172C41.8597 27.3392 41.5293 28.5455 40.8689 29.5747C40.2085 30.6038 39.2496 31.4068 38.1204 31.876L36.6724 40.552C36.6206 40.8633 36.4601 41.1462 36.2194 41.3503C35.9787 41.5544 35.6733 41.6665 35.3577 41.6667H21.6164C21.3008 41.6665 20.9955 41.5544 20.7547 41.3503C20.514 41.1462 20.3535 40.8633 20.3017 40.552L18.9297 32.3253C18.007 32.273 17.1308 31.9027 16.4502 31.2774C15.7695 30.6522 15.3264 29.8105 15.1962 28.8954C15.0659 27.9804 15.2566 27.0485 15.7357 26.2582C16.2148 25.4678 16.9529 24.8677 17.8244 24.56L17.8204 24.3333C17.8201 22.9833 18.1615 21.6551 18.8128 20.4725C19.4641 19.2899 20.404 18.2914 21.5452 17.5699C22.6863 16.8485 23.9914 16.4275 25.339 16.3463C26.6866 16.265 28.0329 16.5262 29.2524 17.1053C29.6771 16.4584 30.2561 15.9273 30.9371 15.5598C31.6181 15.1923 32.3799 14.9999 33.1537 15ZM24.4871 32.3333H21.6337L22.7457 39H24.4871V32.3333ZM29.8204 32.3333H27.1537V39H29.8204V32.3333ZM35.3391 32.3333H32.4871V39H34.2271L35.3391 32.3333ZM25.8204 19C22.9644 19 20.6324 21.2453 20.4937 24.0227L20.4871 24.2853L20.4911 24.512C20.5005 25.0356 20.3555 25.5503 20.0743 25.9921C19.7931 26.4338 19.3881 26.783 18.9097 26.996L18.7097 27.0747C18.4137 27.1801 18.1643 27.3866 18.0055 27.6578C17.8468 27.929 17.7889 28.2476 17.8419 28.5573C17.895 28.8671 18.0556 29.1482 18.2956 29.3511C18.5356 29.5541 18.8395 29.6658 19.1537 29.6667H35.8204C36.3132 29.6667 36.7999 29.5574 37.2454 29.3467C37.691 29.136 38.0842 28.8291 38.3969 28.4482C38.7096 28.0672 38.9339 27.6217 39.0537 27.1436C39.1735 26.6656 39.1858 26.1669 39.0897 25.6835C38.9937 25.2002 38.7916 24.7441 38.4981 24.3482C38.2046 23.9523 37.827 23.6264 37.3924 23.394C36.9578 23.1615 36.4771 23.0284 35.9848 23.0041C35.4926 22.9797 35.0011 23.0649 34.5457 23.2533L34.3124 23.3613C33.6971 23.6784 32.9827 23.7438 32.3202 23.5437C31.6576 23.3437 31.0987 22.8939 30.7617 22.2893L30.6684 22.1067C30.2423 21.1792 29.559 20.3936 28.6997 19.8429C27.8403 19.2922 26.841 18.9997 25.8204 19ZM33.1537 17.6667C32.8081 17.6666 32.4683 17.7561 32.1676 17.9264C31.8668 18.0968 31.6154 18.3422 31.4377 18.6387C32.1263 19.3164 32.6865 20.1133 33.0911 20.9907C33.695 20.6818 34.3469 20.4776 35.0191 20.3867C35.136 20.0837 35.1773 19.7569 35.1396 19.4343C35.1019 19.1118 34.9862 18.8033 34.8026 18.5355C34.6189 18.2677 34.3728 18.0487 34.0855 17.8973C33.7983 17.7459 33.4784 17.6668 33.1537 17.6667Z" fill="black"/>
</g>
</svg>
