<svg width="55" height="55" viewBox="0 0 55 55" fill="none" xmlns="http://www.w3.org/2000/svg">
<g id="bi:cake" clip-path="url(#clip0_2067_3386)">
<path id="Vector" d="M27.4794 0.0446777L25.4341 2.7603C25.044 3.27634 24.863 3.92059 24.9274 4.56427C24.9918 5.20794 25.2967 5.80361 25.7812 6.23218V13.75H17.1875C15.3641 13.75 13.6155 14.4743 12.3261 15.7636C11.0368 17.0529 10.3125 18.8016 10.3125 20.625V30.9375H6.875C5.05164 30.9375 3.30295 31.6618 2.01364 32.9511C0.724328 34.2404 0 35.9891 0 37.8125L0 51.5625C0 52.4742 0.362164 53.3485 1.00682 53.9932C1.65148 54.6378 2.52582 55 3.4375 55H51.5625C52.4742 55 53.3485 54.6378 53.9932 53.9932C54.6378 53.3485 55 52.4742 55 51.5625V37.8125C55 35.9891 54.2757 34.2404 52.9864 32.9511C51.697 31.6618 49.9484 30.9375 48.125 30.9375H44.6875V20.625C44.6875 18.8016 43.9632 17.0529 42.6739 15.7636C41.3845 14.4743 39.6359 13.75 37.8125 13.75H29.2188V6.20812C29.693 5.77627 29.9884 5.18259 30.0469 4.54389C30.1054 3.90519 29.9228 3.2677 29.535 2.75687L27.4794 0.0446777ZM13.75 20.625C13.75 19.7133 14.1122 18.839 14.7568 18.1943C15.4015 17.5497 16.2758 17.1875 17.1875 17.1875H37.8125C38.7242 17.1875 39.5985 17.5497 40.2432 18.1943C40.8878 18.839 41.25 19.7133 41.25 20.625V22.0481C40.8371 22.0505 40.4279 21.9702 40.0465 21.812C39.6652 21.6538 39.3193 21.4208 39.0294 21.1269C38.4183 20.5153 37.6928 20.0301 36.8942 19.6991C36.0955 19.3681 35.2395 19.1978 34.375 19.1978C33.5105 19.1978 32.6545 19.3681 31.8558 19.6991C31.0572 20.0301 30.3317 20.5153 29.7206 21.1269C29.1315 21.7155 28.3328 22.0461 27.5 22.0461C26.6672 22.0461 25.8685 21.7155 25.2794 21.1269C24.6683 20.5153 23.9428 20.0301 23.1442 19.6991C22.3455 19.3681 21.4895 19.1978 20.625 19.1978C19.7605 19.1978 18.9045 19.3681 18.1058 19.6991C17.3072 20.0301 16.5817 20.5153 15.9706 21.1269C15.6807 21.4208 15.3348 21.6538 14.9535 21.812C14.5721 21.9702 14.1629 22.0505 13.75 22.0481V20.625ZM13.75 25.4856C15.4344 25.4856 17.1187 24.8428 18.4044 23.5606C18.9935 22.972 19.7922 22.6414 20.625 22.6414C21.4578 22.6414 22.2565 22.972 22.8456 23.5606C25.4169 26.1284 29.5831 26.1284 32.1544 23.5606C32.7435 22.972 33.5422 22.6414 34.375 22.6414C35.2078 22.6414 36.0065 22.972 36.5956 23.5606C37.8812 24.8428 39.5656 25.4856 41.25 25.4856V30.9375H13.75V25.4856ZM3.4375 37.8125C3.4375 36.9008 3.79966 36.0265 4.44432 35.3818C5.08898 34.7372 5.96332 34.375 6.875 34.375H48.125C49.0367 34.375 49.911 34.7372 50.5557 35.3818C51.2003 36.0265 51.5625 36.9008 51.5625 37.8125V40.5384L50.3456 41.7553C50.0538 42.0473 49.7074 42.2789 49.3261 42.4369C48.9448 42.5949 48.536 42.6762 48.1233 42.6762C47.7105 42.6762 47.3018 42.5949 46.9205 42.4369C46.5392 42.2789 46.1927 42.0473 45.9009 41.7553C45.29 41.1443 44.5646 40.6595 43.7663 40.3288C42.968 39.9981 42.1124 39.8279 41.2483 39.8279C40.3842 39.8279 39.5286 39.9981 38.7302 40.3288C37.9319 40.6595 37.2066 41.1443 36.5956 41.7553C36.0065 42.3439 35.2078 42.6745 34.375 42.6745C33.5422 42.6745 32.7435 42.3439 32.1544 41.7553C31.5433 41.1437 30.8178 40.6586 30.0192 40.3276C29.2205 39.9966 28.3645 39.8262 27.5 39.8262C26.6355 39.8262 25.7795 39.9966 24.9808 40.3276C24.1822 40.6586 23.4567 41.1437 22.8456 41.7553C22.2565 42.3439 21.4578 42.6745 20.625 42.6745C19.7922 42.6745 18.9935 42.3439 18.4044 41.7553C17.7933 41.1437 17.0678 40.6586 16.2692 40.3276C15.4705 39.9966 14.6145 39.8262 13.75 39.8262C12.8855 39.8262 12.0295 39.9966 11.2308 40.3276C10.4322 40.6586 9.70665 41.1437 9.09562 41.7553C8.50649 42.3439 7.70778 42.6745 6.875 42.6745C6.04222 42.6745 5.24351 42.3439 4.65438 41.7553L3.4375 40.5384V37.8125ZM43.4706 44.1856C44.5159 45.2308 45.8825 45.8937 47.3503 46.0677C48.8182 46.2416 50.3019 45.9165 51.5625 45.1447V51.5625H3.4375V45.1447C5.97094 46.6984 9.33281 46.3822 11.5294 44.1822C12.1185 43.5936 12.9172 43.263 13.75 43.263C14.5828 43.263 15.3815 43.5936 15.9706 44.1822C18.5419 46.7534 22.7081 46.7534 25.2794 44.1822C25.8685 43.5936 26.6672 43.263 27.5 43.263C28.3328 43.263 29.1315 43.5936 29.7206 44.1822C32.2919 46.7534 36.4581 46.7534 39.0259 44.1822C39.3177 43.8902 39.6642 43.6586 40.0455 43.5006C40.4268 43.3426 40.8355 43.2612 41.2483 43.2612C41.661 43.2612 42.0698 43.3426 42.4511 43.5006C42.8324 43.6586 43.1788 43.8902 43.4706 44.1822V44.1856Z" fill="black"/>
</g>
<defs>
<clipPath id="clip0_2067_3386">
<rect width="55" height="55" fill="white"/>
</clipPath>
</defs>
</svg>
